<?xml version="1.0" encoding="utf-8"?>
<!-- Generator: Adobe Illustrator 27.2.0, SVG Export Plug-In . SVG Version: 6.00 Build 0)  -->
<svg version="1.1" id="Слой_1" xmlns="http://www.w3.org/2000/svg" xmlns:xlink="http://www.w3.org/1999/xlink" x="0px" y="0px"
	 viewBox="0 0 144 18" style="enable-background:new 0 0 144 18;" xml:space="preserve">
<style type="text/css">
	.st0{fill:#020000;}
	.st1{fill:#FFFFFF;}
</style>
<path class="st0" d="M4.4,5h2.6v2.3H4.4v7.2h-3V7.3H0V5h1.4V4.6c0-1.3,0.4-2.3,1.1-3c0.8-0.7,1.8-1.1,3.1-1.1c0.7,0,1.3,0.1,1.7,0.3
	v2.4C7,3.1,6.6,3,6.2,3C5.7,3,5.3,3.1,4.9,3.4C4.6,3.6,4.4,4,4.4,4.6V5L4.4,5z M17.6,12.3c-0.4,0.8-1.1,1.4-1.9,1.9
	c-0.8,0.5-1.8,0.7-2.9,0.7c-0.7,0-1.5-0.1-2.2-0.4c-0.6-0.2-1.2-0.6-1.7-1c-0.5-0.5-0.9-1-1.1-1.6c-0.3-0.6-0.4-1.3-0.4-2
	c0-0.7,0.1-1.4,0.4-2C8.1,7.2,8.5,6.7,9,6.2c0.5-0.5,1-0.8,1.7-1.1c0.7-0.3,1.4-0.4,2.1-0.4c0.7,0,1.4,0.1,2.1,0.4
	c0.6,0.2,1.2,0.6,1.6,1.1c0.5,0.5,0.8,1,1.1,1.6C17.9,8.5,18,9.2,18,9.9c0,0.2,0,0.3,0,0.4c0,0.1,0,0.2,0,0.3h-7.5
	c0,0.3,0.1,0.5,0.2,0.8c0.1,0.2,0.3,0.4,0.5,0.6c0.2,0.2,0.5,0.3,0.8,0.4c0.3,0.1,0.6,0.1,0.9,0.1c0.6,0,1-0.1,1.3-0.3
	c0.3-0.2,0.6-0.5,0.8-0.9L17.6,12.3L17.6,12.3z M15,8.7c-0.1-0.5-0.3-0.9-0.7-1.3C14,7.2,13.6,7.1,13.2,7c-0.4-0.1-0.8,0-1.2,0.1
	c-0.5,0.2-0.9,0.5-1.2,1c-0.1,0.2-0.2,0.4-0.2,0.7L15,8.7L15,8.7z M30,5v9.6h-3v-1.3c-0.4,0.5-0.8,0.9-1.4,1.1
	c-0.6,0.3-1.2,0.4-1.9,0.4c-0.7,0-1.3-0.1-1.9-0.4c-0.6-0.3-1.1-0.6-1.5-1.1c-0.4-0.5-0.8-1-1-1.6c-0.3-0.6-0.4-1.3-0.4-2
	c0-0.7,0.1-1.3,0.4-2c0.2-0.6,0.6-1.1,1-1.6c0.4-0.4,0.9-0.8,1.5-1.1c0.6-0.3,1.3-0.4,1.9-0.4c0.7,0,1.3,0.1,1.9,0.4
	c0.6,0.2,1.1,0.6,1.4,1.1V5H30z M21.9,9.8c0,0.3,0.1,0.7,0.2,1c0.1,0.3,0.3,0.6,0.6,0.8c0.2,0.2,0.5,0.4,0.9,0.5
	c0.3,0.1,0.7,0.2,1,0.2c0.3,0,0.7-0.1,1-0.2c0.3-0.1,0.6-0.3,0.9-0.5c0.2-0.2,0.4-0.5,0.6-0.8c0.1-0.3,0.2-0.6,0.2-1
	c0-0.3-0.1-0.7-0.2-1c-0.1-0.3-0.3-0.6-0.6-0.8c-0.2-0.2-0.5-0.4-0.9-0.5c-0.5-0.2-1-0.2-1.5-0.1c-0.5,0.1-1,0.3-1.3,0.7
	c-0.2,0.2-0.4,0.5-0.6,0.8C22,9.1,21.9,9.5,21.9,9.8z M35.5,2.2V5h2.6v2.3h-2.6v3.5c0,0.5,0.1,0.9,0.4,1.1c0.2,0.2,0.6,0.3,1.1,0.3
	c0.2,0,0.4,0,0.6-0.1c0.2,0,0.4-0.1,0.5-0.2v2.4c-0.3,0.1-0.6,0.2-0.9,0.3c-0.4,0.1-0.8,0.1-1.2,0.1c-1.1,0-1.9-0.3-2.5-0.9
	c-0.6-0.6-0.9-1.4-0.9-2.5V7.3h-1.4V5h1.4V2.2H35.5z M42.2,14.6h-3V1h3v5.2c0.3-0.5,0.7-0.8,1.2-1.1c0.6-0.3,1.2-0.4,1.8-0.4
	c1.2,0,2.1,0.3,2.8,1c0.7,0.7,1,1.7,1,2.9v5.9h-3V9.3c0-0.6-0.2-1.1-0.5-1.4c-0.3-0.3-0.8-0.5-1.3-0.5c-0.3,0-0.5,0-0.8,0.1
	c-0.2,0.1-0.5,0.3-0.6,0.4c-0.4,0.4-0.5,0.9-0.5,1.6V14.6z M60.1,12.3c-0.4,0.8-1.1,1.4-1.8,1.9c-0.8,0.5-1.8,0.7-2.9,0.7
	c-0.7,0-1.5-0.1-2.2-0.4c-0.6-0.2-1.2-0.6-1.7-1c-0.5-0.5-0.9-1-1.1-1.6c-0.3-0.6-0.4-1.3-0.4-2c0-0.7,0.1-1.4,0.4-2
	c0.3-0.6,0.6-1.1,1.1-1.6c0.5-0.5,1-0.8,1.7-1.1c1.4-0.5,2.9-0.5,4.2,0C58,5.4,58.5,5.7,59,6.2c0.5,0.5,0.8,1,1.1,1.6
	c0.3,0.7,0.4,1.4,0.4,2.1c0,0.2,0,0.3,0,0.4c0,0.1,0,0.2,0,0.3h-7.5c0,0.3,0.1,0.5,0.2,0.8c0.1,0.2,0.3,0.4,0.5,0.6
	c0.2,0.2,0.5,0.3,0.8,0.4c0.3,0.1,0.6,0.1,0.9,0.1c0.6,0,1-0.1,1.3-0.3c0.3-0.2,0.6-0.5,0.8-0.9L60.1,12.3z M57.5,8.7
	c-0.1-0.5-0.3-0.9-0.7-1.3C56.4,7.2,56,7.1,55.6,7c-0.4-0.1-0.8,0-1.2,0.1c-0.5,0.2-0.9,0.5-1.2,1c-0.1,0.2-0.2,0.4-0.2,0.7
	L57.5,8.7L57.5,8.7z M67.8,7.8c-0.2-0.1-0.5-0.1-0.8-0.1c-0.8,0-1.5,0.3-2,0.8c-0.5,0.5-0.7,1.3-0.7,2.2v3.9h-3V5h3v1.6
	c0.3-0.5,0.7-1,1.2-1.3C66,5,66.7,4.8,67.3,4.8c0.1,0,0.2,0,0.3,0c0.1,0,0.1,0,0.2,0V7.8z M93.8,5.4v2.4h5.1v2.3h-5.1v4.4h-3V3.1
	h8.5v2.3H93.8z M108.3,12.2v2.3h-8V3.1h3v9.1L108.3,12.2L108.3,12.2L108.3,12.2z M119.4,8.8c0,3.8-2.2,6-5.5,6c-3.3,0-5.5-2.2-5.5-6
	c0-3.8,2.2-5.9,5.5-5.9C117.1,2.8,119.4,5,119.4,8.8L119.4,8.8z M116.2,8.8c0-2.5-0.9-3.4-2.3-3.4c-1.4,0-2.3,0.9-2.3,3.4
	c0,2.5,0.9,3.4,2.3,3.4C115.3,12.2,116.2,11.3,116.2,8.8L116.2,8.8z M130.2,3.1l-4.4,7.3v4.2h-3v-4.2l-4.4-7.3h3.3l2.6,4.7h0.2
	l2.6-4.7H130.2z M141,8.8c0,3.4-2,5.7-5.6,5.7h-4.7V3.1h4.6C139,3.1,141,5.3,141,8.8z M137.9,8.8c0-2.5-1.1-3.2-3.1-3.2h-1.1V12h1.1
	C136.8,12,137.9,11.3,137.9,8.8L137.9,8.8z M76.2,7l0.6-0.5l5.4,5.1l-0.6,0.5L76.2,7z"/>
<path class="st1" d="M79.4,6.2l0.5,0.5L74.7,12l-0.5-0.5L79.4,6.2z"/>
</svg>
